<?xml version="1.0" encoding="UTF-8"?>
<svg id="Ebene_1" data-name="Ebene 1" xmlns="http://www.w3.org/2000/svg" version="1.1" viewBox="0 0 19.8 20.4">
  <defs>
    <style>
      .cls-1 {
        fill: #000;
        stroke-width: 0px;
      }
    </style>
  </defs>
  <path class="cls-1" d="M17.5.8H6.5c-.8,0-1.5.7-1.5,1.5v3.5h-2.5c-.8,0-1.5.7-1.5,1.5v11c0,.8.7,1.5,1.5,1.5h11c.8,0,1.5-.7,1.5-1.5v-3.5h2.5c.8,0,1.5-.7,1.5-1.5V2.3c0-.8-.7-1.5-1.5-1.5ZM14,18.3c0,.3-.2.5-.5.5H2.5c-.3,0-.5-.2-.5-.5V7.3c0-.3.2-.5.5-.5h11c.3,0,.5.2.5.5v11ZM18,13.3c0,.3-.2.5-.5.5h-2.5v-6.5c0-.8-.7-1.5-1.5-1.5h-7.5v-3.5c0-.3.2-.5.5-.5h11c.3,0,.5.2.5.5v11Z"/>
</svg>