<?xml version="1.0" encoding="UTF-8"?>
<svg id="Ebene_1" data-name="Ebene 1" xmlns="http://www.w3.org/2000/svg" xmlns:serif="http://www.serif.com/" version="1.1" viewBox="0 0 32 40">
  <defs>
    <style>
      .cls-1 {
        fill: #000;
        fill-rule: evenodd;
        stroke-width: 0px;
      }
    </style>
  </defs>
  <path class="cls-1" d="M23.2,22.4c0,.3.3.6.5.8.4.4.9.6,1.4.6h4c.5,0,1-.2,1.4-.6s.6-.9.6-1.4V7.8c0-.5-.2-1-.6-1.4s-.9-.6-1.4-.6h-4c-1,0-1.8.7-2,1.7l-5.8-1.6H7.2c-.8,0-1.6.3-2.1.9-.6.6-.9,1.3-.9,2.1s0,1,.4,1.5c-.2.1-.4.3-.5.4-.6.6-.9,1.3-.9,2.1s0,1,.4,1.5c-.2.1-.4.3-.5.4-.6.6-.9,1.3-.9,2.1s0,1,.4,1.5c-.2.1-.4.3-.5.4-.6.6-.9,1.3-.9,2.1s.3,1.6.9,2.1c.6.6,1.3.9,2.1.9h8c-.3,2-.3,4.4-.2,6.3,0,2.1,1.8,3.7,3.9,3.7s2.2-.9,2.4-2.1c.4-2.8,1.3-6.1,2.5-8.1,0,0,1.3-.7,2.4-1.2h0ZM25.2,7.8h4v14h-4V7.8ZM23.2,9.6l-6.1-1.8H7.2c-.3,0-.5.1-.7.3s-.3.4-.3.7,0,.5.3.7c.2.2.4.3.7.3h0c.6,0,1,.4,1,1s-.4,1-1,1h-1c-.3,0-.5.1-.7.3s-.3.4-.3.7,0,.5.3.7c.2.2.4.3.7.3h0c.6,0,1,.4,1,1s-.4,1-1,1h-1c-.3,0-.5.1-.7.3-.2.2-.3.4-.3.7s0,.5.3.7c.2.2.4.3.7.3h0c.6,0,1,.4,1,1s-.4,1-1,1h-1c-.3,0-.5.1-.7.3-.2.2-.3.4-.3.7s0,.5.3.7.4.3.7.3h9.2c.3,0,.6.1.8.4.2.2.3.6.2.9-.5,2-.5,4.9-.4,6.9h0c0,1,.9,1.8,1.9,1.8h0c.2,0,.4-.2.5-.4h0c.5-3.2,1.5-6.9,3-9.2,0-.1.2-.3.4-.3l3.4-1.7s0-10.6,0-10.6Z"/>
</svg>